<svg id="Layer_1" data-name="Layer 1" xmlns="http://www.w3.org/2000/svg" viewBox="0 0 290.87 188.65"><defs><style>.cls-1{fill:#3d3d3d;}.cls-2{fill:#86cfc8;}</style></defs><title>mm_ux_logo</title><path class="cls-1" d="M144.75,188.45l26-83.07,25.74,83.07Zm70.07-91,19.5,63.05-31.46,28h-2.08l-28.21-91Zm47.84,0,28.21,91H247.32l-28.21-91Z"/><path class="cls-2" d="M169.08,93.28,140.87,0h43.55l28.21,93.28Zm47.84,0-19.5-64.63L228.88,0H231l28.21,93.28ZM287,0,261,85.15,235.25,0Z"/><path class="cls-1" d="M62.25,188.65C19.62,188.65,0,160.44,0,99.81V.17H62.25ZM67.91.17h62.25V99.81c0,60.63-19.62,88.84-62.25,88.84Z"/></svg>